<svg width="48" height="37" viewBox="0 0 48 37" fill="none" xmlns="http://www.w3.org/2000/svg">
<path d="M3.27273 36.0088H10.9091V17.4633L0 9.28149V32.736C0 34.5442 1.46455 36.0088 3.27273 36.0088Z" fill="#7562E0"/>
<path d="M37.0909 36.0088H44.7273C46.5355 36.0088 48 34.5442 48 32.7361V9.28152L37.0909 17.4633V36.0088Z" fill="#7562E0"/>
<path d="M37.0909 3.28155V17.4633L48 9.28152V4.91791C48 0.873364 43.3827 -1.43664 40.1455 0.990637L37.0909 3.28155Z" fill="#7562E0"/>
<path fill-rule="evenodd" clip-rule="evenodd" d="M10.9091 17.4633V3.28152L24 13.0997L37.0909 3.28155V17.4633L24 27.2815L10.9091 17.4633Z" fill="#7562E0"/>
<path d="M0 4.91791V9.28149L10.9091 17.4633V3.28152L7.85455 0.990637C4.61727 -1.43664 0 0.873364 0 4.91791Z" fill="#7562E0"/>
</svg>
