<svg width="41" height="42" viewBox="0 0 41 42" fill="none" xmlns="http://www.w3.org/2000/svg">
<path fill-rule="evenodd" clip-rule="evenodd" d="M3.39933 30.665L0.545166 41.0862L11.2098 38.2897C14.1483 39.8921 17.4565 40.7367 20.8231 40.738H20.8318C31.9191 40.738 40.9447 31.7151 40.9496 20.627C40.9515 15.2529 38.8603 10.2001 35.0627 6.39872C31.2639 2.59731 26.2131 0.503113 20.8318 0.500488C9.74255 0.500488 0.718478 9.52191 0.713967 20.6108C0.712837 24.1552 1.63898 27.6153 3.39933 30.665ZM4.11072 20.6118C4.11411 11.3956 11.6149 3.89758 20.8382 3.89758C25.3047 3.89947 29.5025 5.64018 32.6596 8.79954C35.8167 11.9589 37.5541 16.159 37.5525 20.6254C37.5487 29.8424 30.048 37.3412 20.8317 37.3412H20.8254C17.8243 37.3397 14.8816 36.5342 12.3149 35.0108L11.7038 34.6487L5.37517 36.3081L7.06478 30.1401L6.66689 29.5078C4.9932 26.8462 4.10935 23.7701 4.11072 20.6118Z" fill="#7562E0"/>
<path fill-rule="evenodd" clip-rule="evenodd" d="M15.8039 12.2031C15.4272 11.3663 15.0308 11.3493 14.6728 11.3346C14.3797 11.3222 14.0444 11.3229 13.7094 11.3229C13.374 11.3229 12.8296 11.4488 12.3692 11.9518C11.9083 12.4548 10.6096 13.6707 10.6096 16.1439C10.6096 18.6172 12.411 21.0068 12.6619 21.3425C12.9132 21.6778 16.1393 26.9152 21.2489 28.9299C25.4949 30.6043 26.3589 30.2712 27.2809 30.1876C28.2025 30.1039 30.2549 28.9717 30.6735 27.798C31.0925 26.6243 31.0925 25.6186 30.967 25.4084C30.8411 25.1985 30.5062 25.0731 30.0032 24.8217C29.5005 24.5704 27.0292 23.3542 26.5684 23.1865C26.1076 23.0188 25.7726 22.9352 25.4373 23.4382C25.1023 23.9412 24.1396 25.0731 23.8461 25.4084C23.553 25.7441 23.2598 25.7859 22.7568 25.5346C22.2542 25.2826 20.6351 24.7524 18.7146 23.0399C17.2203 21.7076 16.2116 20.0622 15.9181 19.5591C15.625 19.0561 15.8868 18.7841 16.1389 18.5335C16.3646 18.3082 16.6415 17.9465 16.8932 17.653C17.1438 17.3595 17.2278 17.15 17.3951 16.815C17.5628 16.4793 17.4791 16.1858 17.3533 15.9344C17.2278 15.6831 16.2508 13.1971 15.8039 12.2031Z" fill="#7562E0"/>
</svg>
